<svg xmlns="http://www.w3.org/2000/svg" width="23.194" height="23.194" viewBox="0 0 23.194 23.194">
  <g id="Icon_feather-instagram" data-name="Icon feather-instagram" transform="translate(-2.25 -2.25)">
    <path id="Tracé_4" data-name="Tracé 4" d="M8.423,3H19.27a5.423,5.423,0,0,1,5.423,5.423V19.27a5.423,5.423,0,0,1-5.423,5.423H8.423A5.423,5.423,0,0,1,3,19.27V8.423A5.423,5.423,0,0,1,8.423,3Z" transform="translate(0 0)" fill="none" stroke="#fff" stroke-linecap="round" stroke-linejoin="round" stroke-width="1.5"/>
    <path id="Tracé_5" data-name="Tracé 5" d="M20.7,15.637a4.339,4.339,0,1,1-3.655-3.655A4.339,4.339,0,0,1,20.7,15.637Z" transform="translate(-2.51 -2.474)" fill="none" stroke="#fff" stroke-linecap="round" stroke-linejoin="round" stroke-width="1.5"/>
    <path id="Tracé_6" data-name="Tracé 6" d="M26.25,9.75h0" transform="translate(-6.437 -1.869)" fill="none" stroke="#fff" stroke-linecap="round" stroke-linejoin="round" stroke-width="1.5"/>
  </g>
</svg>
