<svg xmlns="http://www.w3.org/2000/svg" width="26.71" height="21.694" viewBox="0 0 26.71 21.694">
  <path id="Icon_awesome-twitter" data-name="Icon awesome-twitter" d="M23.965,8.787c.017.237.017.475.017.712A15.469,15.469,0,0,1,8.406,25.074,15.47,15.47,0,0,1,0,22.617a11.324,11.324,0,0,0,1.322.068,10.963,10.963,0,0,0,6.8-2.339A5.484,5.484,0,0,1,3,16.549a6.9,6.9,0,0,0,1.034.085,5.79,5.79,0,0,0,1.441-.186,5.475,5.475,0,0,1-4.39-5.373v-.068a5.513,5.513,0,0,0,2.474.695A5.482,5.482,0,0,1,1.864,4.381a15.56,15.56,0,0,0,11.287,5.728,6.18,6.18,0,0,1-.136-1.254A5.479,5.479,0,0,1,22.49,5.109a10.778,10.778,0,0,0,3.474-1.322A5.459,5.459,0,0,1,23.558,6.8a10.974,10.974,0,0,0,3.152-.847,11.768,11.768,0,0,1-2.746,2.83Z" transform="translate(0 -3.381)" fill="#fff"/>
</svg>
